<?xml version="1.0" encoding="UTF-8"?>
<svg width="360px" height="382px" viewBox="0 0 360 382" version="1.1" xmlns="http://www.w3.org/2000/svg" xmlns:xlink="http://www.w3.org/1999/xlink">
    <!-- Generator: Sketch 47.1 (45422) - http://www.bohemiancoding.com/sketch -->
    <title>baby-name-finder-logo</title>
    <desc>Created with Sketch.</desc>
    <defs>
        <polygon id="path-1" points="262.663328 0.717071084 262.663328 156.056595 -2.86689087e-05 156.056595 -2.86689087e-05 0.717071084"></polygon>
        <rect id="path-3" x="0" y="0" width="64" height="64" rx="1"></rect>
        <rect id="path-4" x="0" y="0" width="64" height="64" rx="1"></rect>
        <rect id="path-5" x="0" y="0" width="64" height="64" rx="1"></rect>
        <rect id="path-6" x="0" y="0" width="64" height="64" rx="1"></rect>
    </defs>
    <g id="Page-1" stroke="none" stroke-width="1" fill="none" fill-rule="evenodd">
        <g id="Task-1" transform="translate(-540.000000, -64.000000)">
            <g id="Group-51" transform="translate(540.000000, 64.000000)">
                <g id="Group-6" transform="translate(16.000000, 0.000000)">
                    <g id="Page-1" transform="translate(33.000000, 0.000000)">
                        <path d="M199.555845,248.398113 L199.555845,248.398113 L199.551092,248.392568 C199.551884,248.392568 199.551884,248.39336 199.551884,248.39336 L199.555845,248.398113 Z M256.508811,254.518408 C251.964932,242.757872 243.607552,248.727655 238.922667,248.727655 C232.65582,248.727655 226.506215,253.197863 218.77861,259.145466 C217.538866,260.099237 211.788513,254.162725 210.743643,255.065005 C207.581305,251.874149 207.993233,246.332137 205.176281,243.176137 L198.263817,234.994619 C195.310613,231.257167 193.35554,228.390309 192.079357,226.267297 C192.52614,226.405927 193.003817,226.560399 193.515558,226.733092 C203.945251,230.267749 213.068658,232.059634 220.6307,232.059634 C233.185781,232.059634 238.197833,227.053128 240.190929,222.852258 C241.679414,219.716062 243.165522,213.216318 236.394857,204.923104 C228.77657,195.589773 210.940893,176.878749 201.645586,167.230134 C210.603429,159.022475 216.528058,148.505643 219.301441,135.821439 C228.546049,133.503553 235.411775,125.124785 235.411775,115.171978 C235.411775,105.887761 229.436447,97.9724114 221.129766,95.0699054 L221.129766,86.5263663 C221.129766,80.9542518 220.503953,75.3845139 219.269754,69.9716253 C218.967146,68.6471193 218.623345,67.3099386 218.247064,65.9988994 C217.688586,64.0485801 217.039799,62.0935078 216.321302,60.1883422 C215.609143,58.3006042 214.809052,56.4128663 213.943212,54.5758271 C213.369682,53.3598482 212.755751,52.1414928 212.117263,50.9532398 C209.586284,46.2406283 206.53089,41.7244747 203.035842,37.5315259 C202.601733,37.0102789 202.160495,36.4945771 201.713712,35.9836283 C197.252218,30.8915681 192.118965,26.2851072 186.456543,22.2925771 C185.890935,21.8941163 185.319781,21.5012006 184.743875,21.1146223 C173.035622,13.2594777 159.251887,8.06601988 144.880363,6.09589639 C140.42679,5.48513434 135.868652,5.17618855 131.331902,5.17618855 C126.79436,5.17618855 122.237013,5.48513434 117.782649,6.09589639 C103.411917,8.06601988 89.6273898,13.2594777 77.9199289,21.1146223 C77.3440223,21.5012006 76.7728687,21.8941163 76.2072602,22.2925771 C70.5448386,26.2851072 65.4115855,30.8915681 60.9508837,35.9836283 C60.5033084,36.4945771 60.0620705,37.0102789 59.627962,37.5307337 C56.1329139,41.7244747 53.0775193,46.2406283 50.5457482,50.9540319 C49.9080524,52.1414928 49.2933295,53.3598482 48.7205916,54.5766193 C47.8547512,56.4112819 47.0546608,58.299812 46.3425012,60.1883422 C45.6240042,62.0935078 44.9752181,64.0485801 44.4167392,65.9988994 C44.040459,67.3099386 43.6966578,68.6471193 43.3940494,69.9716253 C42.1598506,75.3845139 41.5340373,80.9542518 41.5340373,86.5263663 L41.5340373,95.0699054 C33.2273566,97.9724114 27.2520283,105.887761 27.2520283,115.171978 C27.2520283,125.124785 34.1177542,133.503553 43.3623627,135.821439 C46.1357452,148.505643 52.0603747,159.022475 61.0182181,167.230134 C51.7229108,176.878749 33.8872331,195.589773 26.2681548,204.923104 C19.4990735,213.215526 20.9851819,219.71527 22.4736669,222.851466 C24.4675554,227.052336 29.4788145,232.059634 42.0323114,232.059634 C49.5951458,232.059634 58.7185524,230.267749 69.1482452,226.733092 C69.6599861,226.559607 70.1400404,226.405134 70.5876157,226.267297 C69.3161849,228.382387 67.3682422,231.238155 64.4300886,234.95818 L57.4677181,243.19911 C54.6563114,246.347981 57.049453,248.711812 53.8942452,251.89633 C52.8493747,250.99405 48.3997633,261.563164 47.1608114,260.610186 C39.4324139,254.663375 26.5628416,251.704625 20.2975795,251.703041 C15.6095253,251.703041 10.6988717,242.75708 6.1542,254.518408 C2.25276928,264.617767 4.52629337,276.989857 12.3917361,288.462044 C22.0443114,302.538881 37.4377331,311.995791 50.6978446,311.995791 C54.8583145,311.995791 58.7391488,311.098264 62.2326127,309.329351 L63.8232873,308.523716 L64.6455584,307.41864 C65.1596759,306.886303 69.0246669,303.100529 78.3405705,299.332183 C87.9472,295.445803 98.9900313,293.293481 109.497357,292.15355 L131.982272,292.15355 L153.711459,292.15355 L154.359453,292.15355 C165.333366,293.348933 176.778619,295.657312 186.38208,299.918387 C194.690345,303.60514 197.7497,307.072463 197.773465,307.104942 L198.844477,308.5253 L200.430399,309.329351 C203.924655,311.098264 207.805489,311.995791 211.965959,311.995791 C225.22607,311.995791 240.620284,302.538881 250.271275,288.462836 C258.13751,276.990649 260.411034,264.618559 256.508811,254.518408 L256.508811,254.518408 Z" id="Fill-1" fill="#FFE0B2"></path>
                        <path d="M131.331823,0.000237650602 C126.641392,0.000237650602 121.929573,0.320273795 117.325488,0.951632229 C102.469949,2.98750572 88.220419,8.35603283 76.117666,16.4765539 C75.5219551,16.8758069 74.9317895,17.2821895 74.347169,17.6941172 C68.4938346,21.821316 63.1878889,26.5830419 58.5758828,31.8470027 C58.1132563,32.3753792 57.6577593,32.9085087 57.2093919,33.4463913 C53.5955184,37.7811383 50.4371419,42.4501804 47.8198166,47.3228099 C47.1607322,48.5498792 46.525413,49.8102196 45.9328708,51.0673913 C45.0377202,52.9638431 44.2114883,54.9165389 43.4755636,56.8684425 C42.7317172,58.838566 42.0623346,60.8593883 41.4840515,62.8746654 C41.0950967,64.2308581 40.7402051,65.6124003 40.4272985,66.9820599 C39.1511148,72.5771473 38.503913,78.3354214 38.503913,84.0952798 L38.503913,92.9271684 C29.9175967,95.9271111 23.7410575,104.109421 23.7410575,113.707337 C23.7410575,123.996024 30.8380967,132.657596 40.3940274,135.053906 C43.8257021,150.746768 51.9042383,163.243229 64.4664491,172.259692 C79.9882021,183.401545 102.485,189.0505 131.331823,189.0505 C160.178645,189.0505 182.674651,183.401545 198.197196,172.259692 C210.759407,163.243229 218.837943,150.746768 222.269618,135.053906 C231.824756,132.657596 238.922588,123.996024 238.922588,113.707337 C238.922588,104.109421 232.746048,95.9271111 224.159732,92.9271684 L224.159732,84.0952798 C224.159732,78.3354214 223.51253,72.5771473 222.236347,66.9820599 C221.92344,65.6124003 221.567756,64.2308581 221.179594,62.8746654 C220.601311,60.8593883 219.931928,58.838566 219.188082,56.8684425 C218.452949,54.917331 217.625925,52.9654274 216.730774,51.0665991 C216.138232,49.8102196 215.502913,48.5498792 214.843829,47.3220178 C212.226503,42.4501804 209.068127,37.7811383 205.454253,33.4471834 C205.005886,32.9085087 204.550389,32.3753792 204.087762,31.8477949 C199.475756,26.5830419 194.169811,21.821316 188.316476,17.6941172 C187.731064,17.2821895 187.14169,16.8758069 186.545979,16.4765539 C174.443226,8.35603283 160.193696,2.98750572 145.338157,0.951632229 C140.734073,0.320273795 136.021461,0.000237650602 131.331823,0.000237650602 M131.331823,7.9219244 C135.728359,7.9219244 140.045678,8.22136416 144.2616,8.79964729 C158.315464,10.7262015 171.235735,15.7437979 182.132015,23.0547226 C182.677027,23.4199123 183.217286,23.7914395 183.752,24.1685117 C189.097555,27.9376503 193.927407,32.2700208 198.128277,37.0666021 C198.548919,37.5458642 198.962431,38.0306714 199.370398,38.5194395 C202.62938,42.4303762 205.480395,46.6304545 207.864823,51.0713521 C208.461326,52.1811804 209.028518,53.3060599 209.565609,54.4451985 C210.370452,56.1539063 211.108753,57.8943009 211.776552,59.6640057 C212.44435,61.4337105 213.040853,63.2327256 213.564476,65.0578822 C213.913823,66.2754455 214.229898,67.5040991 214.512702,68.7438431 C215.643919,73.702819 216.238045,78.8368642 216.238045,84.0952798 L216.238045,99.6249545 L216.918518,99.6249545 C224.663552,99.6249545 231.000901,105.961512 231.000901,113.707337 C231.000901,121.45237 224.663552,127.78972 216.918518,127.78972 L215.510835,127.78972 C211.406609,158.096509 189.18707,181.128813 131.331823,181.128813 C73.4757834,181.128813 51.2570364,158.096509 47.1528105,127.78972 L45.7451268,127.78972 C38.0000937,127.78972 31.6627443,121.45237 31.6627443,113.707337 C31.6627443,105.961512 38.0000937,99.6249545 45.7451268,99.6249545 L46.4255997,99.6249545 L46.4255997,84.0952798 C46.4255997,78.8368642 47.0197262,73.702819 48.1509431,68.7438431 C48.4337473,67.5040991 48.7498226,66.2754455 49.0983768,65.0578822 C49.6227925,63.2327256 50.2192955,61.4337105 50.8870937,59.6640057 C51.5548919,57.8943009 52.2931931,56.1539063 53.0980364,54.4451985 C53.6351268,53.3060599 54.2023196,52.1811804 54.7988226,51.0713521 C57.1832503,46.6304545 60.0334732,42.4303762 63.2932473,38.5194395 C63.7012142,38.0306714 64.1147262,37.5458642 64.5353678,37.0666021 C68.7362383,32.2700208 73.5652985,27.9376503 78.9116449,24.1685117 C79.4463587,23.7914395 79.9866178,23.4199123 80.5308377,23.0547226 C91.4279099,15.7437979 104.348181,10.7262015 118.401253,8.79964729 C122.617175,8.22136416 126.935286,7.9219244 131.331823,7.9219244" id="Fill-3" fill="#616161"></path>
                        <path d="M131.331823,227.603289 C80.9514792,227.603289 66.7280907,234.305036 64.3880244,235.649347 L63.1807593,236.342494 L62.2816479,237.406377 L54.7544611,246.315898 L43.914425,259.145862 L60.7099852,259.349449 C60.7686057,259.350241 69.5767292,259.569672 78.9100605,263.737271 C90.5961328,268.954494 97.8413075,277.911545 100.443582,290.359684 L101.760166,296.659802 L108.197329,296.659802 L132.004374,296.659802 L154.466317,296.659802 L160.903479,296.659802 L162.220064,290.359684 C164.822338,277.911545 172.067512,268.954494 183.753585,263.737271 C193.086916,259.569672 201.895039,259.350241 201.983762,259.348657 L218.77853,259.14507 L207.909184,246.315898 L200.381997,237.406377 L199.482886,236.342494 L198.275621,235.649347 C195.935555,234.305036 181.711374,227.603289 131.331823,227.603289 M131.331823,235.524976 C182.150235,235.524976 194.330621,242.519033 194.330621,242.519033 L201.857808,251.428555 C201.857808,251.428555 162.165404,251.908609 154.466317,288.738115 L132.004374,288.738115 L108.197329,288.738115 C100.498241,251.908609 60.8058377,251.428555 60.8058377,251.428555 L68.3330244,242.519033 C68.3330244,242.519033 80.5134099,235.524976 131.331823,235.524976" id="Fill-5" fill="#5B5C5E"></path>
                        <g id="Group-9" transform="translate(0.000000, 161.114434)">
                            <mask id="mask-2" fill="white">
                                <use xlink:href="#path-1"></use>
                            </mask>
                            <g id="Clip-8"></g>
                            <path d="M260.732259,96.6407759 C256.034698,84.4825711 247.209939,82.6677127 242.365828,82.6669205 C235.889057,82.6669205 228.552783,85.7841042 220.56297,91.9329175 C219.282825,92.9183753 218.088235,93.9038331 217.007717,94.8362157 C211.110813,88.8870289 205.54662,82.7287096 201.212665,77.3300801 C197.759602,73.0286042 195.547075,69.7949717 194.129093,67.4366855 C194.590927,67.5792759 195.085241,67.739294 195.613617,67.9183241 C206.395033,71.571806 215.825801,73.4238964 223.643714,73.4238964 C236.621813,73.4238964 241.802596,68.2486584 243.863819,63.9067819 C245.402211,60.6644355 246.938226,53.9452608 239.939415,45.3716193 C229.915313,33.0914205 202.770861,5.09617952 198.513747,0.717071084 C196.576102,2.48043855 194.458635,4.14557711 192.148671,5.70139639 L192.310274,5.70139639 C192.310274,5.70139639 223.241292,37.442803 233.803277,50.381294 C240.899524,59.074553 236.793714,65.5022096 223.643714,65.5022096 C217.22081,65.5022096 208.639247,63.9677789 198.155686,60.4156946 C193.976205,58.999297 190.81862,58.356056 188.537174,58.356056 C173.377442,58.356056 196.935747,86.7830289 216.903942,105.833101 C216.903942,105.833101 231.058412,90.5886072 242.365828,90.5886072 C246.80831,90.5893994 250.811138,92.9421404 253.343702,99.4957518 C261.183795,119.788737 234.99153,148.134908 214.686662,148.134908 C211.739795,148.134908 208.91809,147.538405 206.341165,146.233704 C206.341165,146.233704 191.416708,126.429487 132.004057,126.429487 C72.5914063,126.429487 56.3218461,146.233704 56.3218461,146.233704 C53.7449214,147.539198 50.9240087,148.134908 47.9771413,148.134908 C27.6722738,148.134908 1.48000873,119.787152 9.32010211,99.4957518 C11.8526654,92.940556 15.8539093,90.5878151 20.2971834,90.5886072 C31.6045991,90.5909837 45.7598611,105.833101 45.7598611,105.833101 C65.7296413,86.7814446 89.2926985,58.356056 74.125837,58.356056 C71.8451834,58.356056 68.6844304,59.0000892 64.5081172,60.4156946 C54.0221804,63.9685711 45.4429937,65.5022096 39.0200901,65.5022096 C25.8716744,65.5022096 21.7642798,59.0737608 28.8605268,50.381294 C39.4225117,37.442803 70.3535298,5.70139639 70.3535298,5.70139639 L70.5151322,5.70139639 C68.2051684,4.14557711 66.0877015,2.48043855 64.1500569,0.717071084 C59.8921503,5.09617952 32.7484907,33.0914205 22.7235961,45.3716193 C15.7263702,53.9444687 17.2623852,60.6628512 18.8007768,63.9059898 C20.8612075,68.2478663 26.0419907,73.4238964 39.0200901,73.4238964 C46.8372105,73.4238964 56.2687708,71.571806 67.0501864,67.9183241 C67.5801473,67.7385018 68.0752527,67.5784837 68.5378792,67.4358934 C67.1206895,69.7941795 64.9057858,73.0286042 61.4527226,77.3308723 C57.1187678,82.7279175 51.5529907,88.8862367 45.6552949,94.8370078 C44.575569,93.9038331 43.3801864,92.9191675 42.1000419,91.9337096 C34.1110208,85.7864807 26.7755389,82.6685048 20.2987678,82.6669205 C15.4522798,82.6669205 6.62831295,84.4825711 1.93075271,96.6407759 C-2.10297018,107.080767 0.248186446,119.87033 8.37900572,131.729095 C18.3563702,146.281234 34.2694545,156.056595 47.9771413,156.056595 C52.277825,156.056595 56.2901593,155.129758 59.9016563,153.30064 L61.5454063,152.468071 L62.3961955,151.325764 C62.9269485,150.775207 66.9218551,146.861893 76.5530419,142.966008 C94.1550298,135.845996 116.422891,134.351173 132.004057,134.351173 C148.177765,134.351173 171.063518,135.951354 188.239319,143.572809 C196.828012,147.38314 199.989557,150.968496 200.015698,151.001767 L201.121566,152.469655 L202.761355,153.30064 C206.373644,155.129758 210.385186,156.056595 214.686662,156.056595 C228.394349,156.056595 244.307433,146.281234 254.284006,131.729887 C262.416409,119.871122 264.766774,107.081559 260.732259,96.6407759" id="Fill-7" fill="#616161" mask="url(#mask-2)"></path>
                        </g>
                        <path d="M154.466396,288.738352 C162.165483,251.908846 201.857887,251.428 201.857887,251.428 L194.3307,242.518479 C194.3307,242.518479 182.150314,235.525214 131.331902,235.525214 C80.5134892,235.525214 68.3331036,242.518479 68.3331036,242.518479 L60.8059169,251.428 C60.8059169,251.428 100.49832,251.908846 108.197408,288.738352 L132.004453,288.738352 L154.466396,288.738352 Z" id="Fill-10" fill="#BA68C8"></path>
                        <path d="M87.5103982,24.5439205 C87.5103982,24.5439205 84.7877145,34.7882458 115.632386,38.1430801 C153.260398,42.2354235 147.055341,77.2231373 125.930579,77.2231373 C107.842992,77.2231373 112.331419,56.890544 121.309859,56.890544 C128.835461,56.890544 129.099254,66.9249446 124.082449,66.9249446 C121.045275,66.9249446 124.610034,63.7562699 120.781483,63.7562699 C117.612808,63.7562699 118.537269,74.7143392 128.307085,70.4897036 C136.763486,66.833053 141.552937,51.5077578 119.725522,46.7246434 C97.094847,41.7656675 76.6838289,43.2921765 87.5103982,24.5439205" id="Fill-12" fill="#BA68C8"></path>
                        <path d="M134.758111,24.5439205 C134.758111,24.5439205 163.457589,23.0316705 167.045321,50.8835289 C170.557797,78.156312 151.45465,78.1127428 147.705315,77.2231373 C144.666556,76.5022639 142.840608,67.9611012 154.062469,69.1564837 C160.347535,69.8266584 162.01505,53.3923271 159.699541,46.4355018 C153.793924,28.6917157 134.758111,24.5439205 134.758111,24.5439205" id="Fill-14" fill="#BA68C8"></path>
                        <path d="M95.8281693,120.594372 C95.8281693,125.516116 88.556853,129.50627 79.5887114,129.50627 C70.6197777,129.50627 63.3492536,125.516116 63.3492536,120.594372 C63.3492536,115.672628 70.6197777,111.682475 79.5887114,111.682475 C88.556853,111.682475 95.8281693,115.672628 95.8281693,120.594372" id="Fill-16" fill="#FFCC80"></path>
                        <path d="M111.999501,96.3991645 C111.999501,102.177243 107.315407,106.861336 101.537329,106.861336 C95.7592506,106.861336 91.0751572,102.177243 91.0751572,96.3991645 C91.0751572,90.6210861 95.7592506,85.9369928 101.537329,85.9369928 C107.315407,85.9369928 111.999501,90.6210861 111.999501,96.3991645" id="Fill-18" fill="#424242"></path>
                        <path d="M174.757242,120.594372 C174.757242,125.516116 182.027766,129.50627 190.9967,129.50627 C199.964841,129.50627 207.236158,125.516116 207.236158,120.594372 C207.236158,115.672628 199.964841,111.682475 190.9967,111.682475 C182.027766,111.682475 174.757242,115.672628 174.757242,120.594372" id="Fill-20" fill="#FFCC80"></path>
                        <path d="M158.585831,96.3991645 C158.585831,102.177243 163.269925,106.861336 169.048003,106.861336 C174.826081,106.861336 179.510175,102.177243 179.510175,96.3991645 C179.510175,90.6210861 174.826081,85.9369928 169.048003,85.9369928 C163.269925,85.9369928 158.585831,90.6210861 158.585831,96.3991645" id="Fill-22" fill="#424242"></path>
                    </g>
                    <text id="Name-Finder" font-family="SassoonPrimaryStd-Bold, Sassoon Primary Std" font-size="52" font-weight="bold" line-spacing="47" fill="#8E24AA">
                        <tspan x="14" y="370">Name Finder</tspan>
                    </text>
                    <g id="Group-5" transform="translate(0.000000, 263.000000)">
                        <g id="Group-4">
                            <g id="Rectangle">
                                <use fill="#8E24AA" fill-rule="evenodd" xlink:href="#path-3"></use>
                                <rect stroke="#6A1B9A" stroke-width="5" x="-2.5" y="-2.5" width="69" height="69" rx="1"></rect>
                            </g>
                            <path d="M14,54.072 L16.736,9.432 C20.984,9.144 24.944,9 29.84,9 C42.152,9 48.632,12.312 48.632,19.872 C48.632,24.192 46.832,27.72 40.712,30.24 C47.192,31.968 50.216,35.64 50.216,41.616 C50.216,50.832 43.16,54.936 27.176,54.936 C22.784,54.936 18.392,54.648 14,54.072 Z M27.032,16.848 L26.384,26.712 C26.384,26.712 28.328,26.784 29.624,26.784 C34.016,26.784 37.472,24.768 37.472,21.312 C37.472,17.784 34.736,16.776 29.984,16.776 C28.688,16.776 27.68,16.776 27.032,16.848 Z M25.88,34.992 L25.232,46.512 C25.232,46.512 28.04,46.728 28.904,46.728 C35.024,46.728 38.264,44.64 38.264,40.824 C38.264,36.864 34.304,34.992 29.192,34.992 C27.896,34.992 26.456,35.064 25.88,34.992 Z" id="B" fill="#FFFFFF"></path>
                        </g>
                        <g id="Group-2" transform="translate(176.000000, 0.000000)">
                            <g id="Rectangle-Copy-2">
                                <use fill="#8E24AA" fill-rule="evenodd" xlink:href="#path-4"></use>
                                <rect stroke="#6A1B9A" stroke-width="5" x="-2.5" y="-2.5" width="69" height="69" rx="1"></rect>
                            </g>
                            <path d="M14,54.072 L16.736,9.432 C20.984,9.144 24.944,9 29.84,9 C42.152,9 48.632,12.312 48.632,19.872 C48.632,24.192 46.832,27.72 40.712,30.24 C47.192,31.968 50.216,35.64 50.216,41.616 C50.216,50.832 43.16,54.936 27.176,54.936 C22.784,54.936 18.392,54.648 14,54.072 Z M27.032,16.848 L26.384,26.712 C26.384,26.712 28.328,26.784 29.624,26.784 C34.016,26.784 37.472,24.768 37.472,21.312 C37.472,17.784 34.736,16.776 29.984,16.776 C28.688,16.776 27.68,16.776 27.032,16.848 Z M25.88,34.992 L25.232,46.512 C25.232,46.512 28.04,46.728 28.904,46.728 C35.024,46.728 38.264,44.64 38.264,40.824 C38.264,36.864 34.304,34.992 29.192,34.992 C27.896,34.992 26.456,35.064 25.88,34.992 Z" id="B-Copy" fill="#FFFFFF"></path>
                        </g>
                        <g id="Group-3" transform="translate(88.000000, 0.000000)">
                            <g id="Rectangle-Copy">
                                <use fill="#8E24AA" fill-rule="evenodd" xlink:href="#path-5"></use>
                                <rect stroke="#6A1B9A" stroke-width="5" x="-2.5" y="-2.5" width="69" height="69" rx="1"></rect>
                            </g>
                            <path d="M39.6,10 L54.144,54.64 L43.128,54.64 L39.24,42.4 L25.488,42.4 L20.016,54.64 L9,54.64 L29.592,10 L39.6,10 Z M28.44,35.2 L37.296,35.2 L33.48,23.32 L28.44,35.2 Z" id="A" fill="#FFFFFF"></path>
                        </g>
                        <g id="Group" transform="translate(264.000000, 0.000000)">
                            <g id="Rectangle-Copy-3">
                                <use fill="#8E24AA" fill-rule="evenodd" xlink:href="#path-6"></use>
                                <rect stroke="#6A1B9A" stroke-width="5" x="-2.5" y="-2.5" width="69" height="69" rx="1"></rect>
                            </g>
                            <polygon id="Y" fill="#FFFFFF" points="40.88 10 30.512 26.488 22.448 10 11 10 24.68 34.12 23.24 54.64 34.184 54.64 35.696 33.832 52.76 10"></polygon>
                        </g>
                    </g>
                </g>
            </g>
        </g>
    </g>
</svg>