<?xml version="1.0" encoding="UTF-8"?>
<svg width="1440px" height="200px" viewBox="0 0 1440 200" version="1.1" xmlns="http://www.w3.org/2000/svg" xmlns:xlink="http://www.w3.org/1999/xlink">
    <!-- Generator: Sketch 47.1 (45422) - http://www.bohemiancoding.com/sketch -->
    <title>cloud-banner</title>
    <desc>Created with Sketch.</desc>
    <defs>
        <rect id="path-1" x="0" y="0" width="1440" height="200"></rect>
    </defs>
    <g id="Page-1" stroke="none" stroke-width="1" fill="none" fill-rule="evenodd">
        <g id="Task-2.3" transform="translate(0.000000, -448.000000)">
            <g id="Group-23" transform="translate(0.000000, 448.000000)">
                <g id="Group-48-Copy">
                    <mask id="mask-2" fill="white">
                        <use xlink:href="#path-1"></use>
                    </mask>
                    <g id="Mask"></g>
                    <g id="Group-48" mask="url(#mask-2)">
                        <g transform="translate(-290.000000, 0.000000)" id="Combined-Shape">
                            <path d="M1010,41.2924166 C1009.35531,41.208182 1008.69144,41.1185158 1008,41 C972.91103,41.3749207 942.539195,62.5906183 929,93 C915.134155,83.2510329 898.153035,77.5359286 880,78 C851.813235,77.5359286 826.92207,90.8711719 811,112 C796.60854,100.529039 778.53061,93.9915748 759,94 C748.12582,93.9915748 737.79992,95.987889 728,100 C712.40767,80.3089628 688.361505,68.0031482 661,68 C645.388185,68.0031482 630.37,72.3921657 617,80 C604.18176,49.3660935 573.667965,27.9264234 538,28 C524.08252,27.9264234 510.82447,31.3003802 499,37 C483.47689,14.7466931 457.470325,0 428,0 C398.57636,0 372.593455,14.717957 357,37 C341.29381,21.3221902 319.53337,11.4859904 295,11 C259.38627,11.4859904 228.47617,33.5967331 216,65 C200.01826,50.3676313 179.13662,41.3749207 156,41 C135.660525,41.3749207 116.85505,48.511617 102,60 C87.03838,34.7360352 59.208305,17.4732424 27,17 C17.77542,17.4732424 8.59365,19.0461216 0,22 L0,186 C0.142805,186.095019 0.281385,186.14911 0,186 L0,214 L0,349 L1010,349 L2020,349 L2020,214 L2020,186 C2019.71861,186.14911 2019.8572,186.095019 2020,186 L2020,22 C2011.40635,19.0461216 2002.22458,17.4732424 1993,17 C1960.79169,17.4732424 1932.96162,34.7360352 1918,60 C1903.14495,48.511617 1884.33947,41.3749207 1864,41 C1840.86338,41.3749207 1819.98174,50.3676313 1804,65 C1791.52383,33.5967331 1760.61373,11.4859904 1725,11 C1700.46663,11.4859904 1678.70619,21.3221902 1663,37 C1647.40655,14.717957 1621.42364,0 1592,0 C1562.52967,0 1536.52311,14.7466931 1521,37 C1509.17553,31.3003802 1495.91748,27.9264234 1482,28 C1446.33203,27.9264234 1415.81824,49.3660935 1403,80 C1389.63,72.3921657 1374.61181,68.0031482 1359,68 C1331.6385,68.0031482 1307.59233,80.3089628 1292,100 C1282.20008,95.987889 1271.87418,93.9915748 1261,94 C1241.46939,93.9915748 1223.39146,100.529039 1209,112 C1193.07793,90.8711719 1168.18676,77.5359286 1140,78 C1121.84696,77.5359286 1104.86584,83.2510329 1091,93 C1077.4608,62.5906183 1047.08897,41.3749207 1012,41 C1011.30856,41.1185158 1010.64469,41.208182 1010,41.2924166 Z" fill="#E3F2FD"></path>
                            <path d="M1010,106.939397 C1012.77927,106.802902 1015.40718,106.931053 1018,107 L1018,107.226632 C1041.35177,108.94865 1062.20308,120.224843 1077,137 C1092.4657,118.565406 1116.03867,106.771526 1142,107 C1171.64136,106.771526 1197.48991,121.32368 1213,144 C1228.45831,129.800531 1248.71212,121.412438 1271,121 C1293.29685,121.412438 1313.68079,129.908731 1329,144 C1344.89171,125.633112 1368.22554,114.103817 1394,114 C1405.71312,114.103817 1416.62883,116.348982 1427,120 C1442.136,105.659087 1463.08101,96.6040386 1486,97 C1497.6356,96.6040386 1508.58426,98.8618836 1519,103 C1534.29339,80.9555076 1559.97378,66.6180652 1589,67 C1610.44056,66.6180652 1630.02682,74.424579 1645,87 C1658.58275,78.7061158 1674.56085,73.6857709 1692,74 C1713.2627,73.6857709 1732.94866,81.5827337 1748,95 C1760.35624,87.9403721 1774.41619,84.1457386 1789,84 C1801.05228,84.1457386 1812.1936,86.4796622 1822,91 C1837.90104,75.7889226 1858.96604,66.6180652 1882,67 C1899.60716,66.6180652 1915.81342,71.7888768 1929,81 C1945.12985,64.2384944 1967.26209,54 1992,54 C2000.20188,54 2008.31641,55.2223302 2016,57 L2016,178 L2016,224 L2016,349 L1010,349 L4,349 L4,224 L4,178 L4,57 C11.683585,55.2223302 19.79812,54 28,54 C52.73791,54 74.87015,64.2384944 91,81 C104.18658,71.7888768 120.392835,66.6180652 138,67 C161.033955,66.6180652 182.09896,75.7889226 198,91 C207.806395,86.4796622 218.94772,84.1457386 231,84 C245.58381,84.1457386 259.643765,87.9403721 272,95 C287.05134,81.5827337 306.737305,73.6857709 328,74 C345.43915,73.6857709 361.417255,78.7061158 375,87 C389.973185,74.424579 409.55944,66.6180652 431,67 C460.02622,66.6180652 485.706615,80.9555076 501,103 C511.41574,98.8618836 522.364405,96.6040386 534,97 C556.91899,96.6040386 577.864005,105.659087 593,120 C603.371175,116.348982 614.286885,114.103817 626,114 C651.774465,114.103817 675.108295,125.633112 691,144 C706.319215,129.908731 726.70315,121.412438 749,121 C771.287885,121.412438 791.54169,129.800531 807,144 C822.510095,121.32368 848.358645,106.771526 878,107 C903.961335,106.771526 927.5343,118.565406 943,137 C957.796924,120.224843 978.648226,108.94865 1002,107.226632 L1002,107 C1004.59282,106.931053 1007.22073,106.802902 1010,106.939397 Z" fill="#FFFFFF"></path>
                        </g>
                    </g>
                </g>
            </g>
        </g>
    </g>
</svg>