<?xml version="1.0" encoding="UTF-8"?>
<svg width="24px" height="24px" viewBox="0 0 24 24" version="1.1" xmlns="http://www.w3.org/2000/svg" xmlns:xlink="http://www.w3.org/1999/xlink">
    <!-- Generator: Sketch 47.1 (45422) - http://www.bohemiancoding.com/sketch -->
    <title>ic-linkedin-active-24</title>
    <desc>Created with Sketch.</desc>
    <defs></defs>
    <g id="Page-1" stroke="none" stroke-width="1" fill="none" fill-rule="evenodd">
        <path d="M5.453125,7.453125 L0.296875,7.453125 L0.296875,22.9375 L5.453125,22.9375 L5.453125,7.453125 Z M5.78125,2.671875 C5.765625,1.15625 4.671875,0 2.90625,0 C1.15625,0 0,1.15625 0,2.671875 C0,4.15625 1.109375,5.34375 2.84375,5.34375 L2.875,5.34375 C4.671875,5.34375 5.796875,4.15625 5.78125,2.671875 Z M13.4375,9.65398702 L13.4375,7.453125 L8.296875,7.453125 C8.296875,7.453125 8.359375,8.90625 8.296875,22.9375 L13.4375,22.9375 L13.4375,14.296875 C13.4375,13.828125 13.484375,13.375 13.609375,13.03125 C13.984375,12.109375 14.828125,11.15625 16.25,11.15625 C18.109375,11.15625 18.859375,12.578125 18.859375,14.65625 L18.859375,22.9375 L24,22.9375 L24,14.0625 C24,9.3125 21.46875,7.09375 18.078125,7.09375 C15.3394594,7.09375 14.1158125,8.59361847 13.4375,9.65398702 L13.4375,9.65398702 Z" id="linkedin---FontAwesome" fill="#8E24AA"></path>
    </g>
</svg>