<?xml version="1.0" encoding="UTF-8"?>
<svg width="24px" height="24px" viewBox="0 0 24 24" version="1.1" xmlns="http://www.w3.org/2000/svg" xmlns:xlink="http://www.w3.org/1999/xlink">
    <!-- Generator: Sketch 47.1 (45422) - http://www.bohemiancoding.com/sketch -->
    <title>ic-twitter-inactive-24</title>
    <desc>Created with Sketch.</desc>
    <defs></defs>
    <g id="Page-1" stroke="none" stroke-width="1" fill="none" fill-rule="evenodd">
        <path d="M24,4.31472081 C23.1167513,4.69543147 22.1573604,4.96954315 21.1675127,5.07614213 C22.1878173,4.46700508 22.964467,3.50761421 23.3299492,2.36548223 C22.3857868,2.92893401 21.319797,3.34010152 20.2081218,3.55329949 C19.3096447,2.59390863 18.0304569,2 16.6142132,2 C13.8883249,2 11.6954315,4.20812183 11.6954315,6.91878173 C11.6954315,7.29949239 11.7411168,7.68020305 11.8172589,8.04568528 C7.73604061,7.83248731 4.0964467,5.88324873 1.6751269,2.89847716 C1.24873096,3.62944162 1.00507614,4.46700508 1.00507614,5.38071066 C1.00507614,7.08629442 1.87309645,8.59390863 3.19796954,9.47715736 C2.39086294,9.44670051 1.62944162,9.21827411 0.974619289,8.85279188 L0.974619289,8.91370558 C0.974619289,11.3045685 2.66497462,13.284264 4.91878173,13.7411168 C4.50761421,13.8477157 4.06598985,13.9086294 3.62436548,13.9086294 C3.30456853,13.9086294 3,13.8781726 2.69543147,13.8324873 C3.31979695,15.7817259 5.1319797,17.1979695 7.29441624,17.2436548 C5.60406091,18.5685279 3.48730964,19.3451777 1.18781726,19.3451777 C0.776649746,19.3451777 0.395939086,19.3299492 0,19.284264 C2.17766497,20.6852792 4.76649746,21.4923858 7.55329949,21.4923858 C16.5989848,21.4923858 21.5482234,14 21.5482234,7.49746193 C21.5482234,7.28426396 21.5482234,7.07106599 21.5329949,6.85786802 C22.4923858,6.15736041 23.3299492,5.2893401 24,4.31472081 Z" id="twitter---FontAwesome" fill="#616161"></path>
    </g>
</svg>