<?xml version="1.0" encoding="UTF-8"?>
<svg width="263px" height="32px" viewBox="0 0 263 32" version="1.1" xmlns="http://www.w3.org/2000/svg" xmlns:xlink="http://www.w3.org/1999/xlink">
    <!-- Generator: Sketch 47.1 (45422) - http://www.bohemiancoding.com/sketch -->
    <title>pixel-onion-logo</title>
    <desc>Created with Sketch.</desc>
    <defs></defs>
    <g id="Page-1" stroke="none" stroke-width="1" fill="none" fill-rule="evenodd">
        <g id="Task-1" transform="translate(-150.000000, -32.000000)" fill="#FFFFFF">
            <g id="Group-52" transform="translate(150.000000, 32.000000)">
                <g id="Group-4-Copy">
                    <path d="M7.85444764,14.4027754 L9.45091386,14.4027754 C11.4690675,14.4027754 12.8746923,14.1154524 13.6732533,13.5414889 C14.4698469,12.964568 14.8707669,11.985668 14.8707669,10.6018313 C14.8707669,9.26099073 14.4772794,8.30324745 13.6940207,7.7374737 C12.9079201,7.17010749 11.5248116,6.88551442 9.53573228,6.88551442 L7.85444764,6.88551442 L7.85444764,14.4027754 Z M7.85444764,32 L0,32 L0,0 L8.75772005,0 C12.1884938,0 14.5977303,0.17357675 15.9836807,0.524142638 C17.3687567,0.870613661 18.5468146,1.47096627 19.5112961,2.31632827 C20.6465076,3.29022351 21.5115242,4.513223 22.1085322,5.97508958 C22.7013867,7.44173349 23,9.07035204 23,10.8625377 C23,12.7723369 22.7046658,14.4500938 22.117495,15.9008133 C21.5303242,17.3515327 20.660061,18.5440482 19.5112961,19.4740374 C18.6445306,20.1744867 17.6219003,20.6774726 16.4447169,20.9823125 C15.2699381,21.2896548 13.386226,21.4423022 10.7972969,21.4423022 L7.85444764,21.4423022 L7.85444764,32 L7.85444764,32 Z" id="Fill-1"></path>
                    <polygon id="Fill-2" points="27 32 36 32 36 0 27 0"></polygon>
                    <path d="M51.9553447,7.43149633 C51.973503,7.46129784 51.9874539,7.49018939 51.9989689,7.51885344 C52.4956646,8.47841665 52.8296,9.32628107 53.0005536,10.0535745 C53.1548991,9.38292669 53.4757693,8.58852301 53.9556354,7.67309333 C54.0125461,7.56799181 54.055506,7.49018939 54.0847364,7.43149633 L57.8286657,0 L67.8921229,0 L57.4894157,15.3875903 L69,32 L59.3617126,32 L54.0847364,22.5126543 C53.8451355,22.0908832 53.6296719,21.6581926 53.4478676,21.2118524 C53.2611915,20.7664221 53.114818,20.3209919 53.0005536,19.8685094 C52.8707883,20.3776375 52.7228646,20.8519593 52.5554541,21.2896548 C52.3831717,21.7259853 52.1840949,22.1341068 51.9553447,22.5126543 L46.638066,32 L37,32 L48.5526583,15.2131036 L38.1045555,0 L48.2120797,0 L51.9553447,7.43149633" id="Fill-3"></path>
                    <polygon id="Fill-4" points="71 0 90 0 90 7.0158676 79.2381908 7.0158676 79.2381908 12.5664562 89.3857953 12.5664562 89.3857953 19.4324063 79.2381908 19.4324063 79.2381908 24.82921 90 24.82921 90 32 71 32"></polygon>
                    <polyline id="Fill-5" points="95 32 95 0 103.471107 0 103.471107 24.5250526 114 24.5250526 114 32 95 32"></polyline>
                    <path d="M154.672073,32 C153.205891,32 152,30.7856792 152,29.3007258 L152,3.69927415 C152,2.2165246 153.205891,1 154.672073,1 L157.399564,1 C158.870109,1 160.784873,1.980272 161.654109,3.17586003 L170.082036,14.7687665 C170.952364,15.9674399 171.929818,17.3825313 172.254036,17.9226947 C172.254036,17.9226947 172.254036,17.9226947 172.764145,18.9038482 C173.273818,19.8850017 173.838036,21.0534824 174.452873,22.407968 C174.284655,21.1248871 174.164218,19.9795469 174.084364,18.9761344 C174.007345,17.9751463 173.970036,17.0856728 173.970036,16.3103588 L173.970036,3.69927415 C173.970036,2.2165246 175.173309,1 176.641891,1 L179.327273,1 C180.796509,1 182,2.2165246 182,3.69927415 L182,29.3007258 C182,30.7856792 180.796509,32 179.327273,32 L176.641891,32 C175.173309,32 173.259636,31.0203892 172.393236,29.8225973 L163.9544,18.1704073 C163.087345,16.972395 162.102255,15.5522348 161.766909,15.0155976 C161.766909,15.0155976 161.766909,15.0155976 161.254836,14.0311383 C160.744727,13.0530701 160.190545,11.8980329 159.590545,10.5713158 C159.756364,11.8709255 159.879418,13.0204531 159.955782,14.0227636 C160.031927,15.0255149 160.072291,15.9132252 160.072291,16.6927266 L160.072291,29.3007258 C160.072291,30.7856792 158.870109,32 157.399564,32 L154.672073,32" id="Fill-6"></path>
                    <path d="M188.846607,32 C187.280136,32 186,30.7856792 186,29.3007258 L186,3.69927415 C186,2.2165246 187.280136,1 188.846607,1 L192.151534,1 C193.715215,1 195,2.2165246 195,3.69927415 L195,29.3007258 C195,30.7856792 193.715215,32 192.151534,32 L188.846607,32" id="Fill-7"></path>
                    <path d="M214.512181,24.958634 C216.844069,24.958634 218.772567,24.1119355 220.300311,22.4159366 C221.824542,20.7225396 222.58589,18.5827015 222.58589,15.9988075 C222.58589,13.4439679 221.81313,11.3128028 220.269365,9.60422807 C218.720114,7.89456923 216.804125,7.04201647 214.512181,7.04201647 C212.176342,7.04201647 210.248941,7.89283464 208.721856,9.59295321 C207.196746,11.2958905 206.435399,13.4318257 206.435399,15.9988075 C206.435399,18.6102382 207.186431,20.7572314 208.692447,22.4369685 C210.196926,24.1175729 212.134862,24.958634 214.512181,24.958634 Z M231,15.9988075 C231,18.1943693 230.593319,20.2494291 229.779517,22.1648542 C228.962643,24.0828811 227.775959,25.7981773 226.214637,27.313128 C224.640146,28.8122506 222.839819,29.9674899 220.816728,30.7803639 C218.791003,31.5932378 216.687366,32 214.512181,32 C212.304733,32 210.192098,31.5932378 208.175371,30.7803639 C206.156231,29.9674899 204.38224,28.8122506 202.848352,27.313128 C201.26157,25.7981773 200.055134,24.0765931 199.233651,22.1455568 C198.410412,20.2164719 198,18.1661822 198,15.9988075 C198,13.817556 198.410412,11.7681336 199.233651,9.84143375 C200.055134,7.91863672 201.26157,6.20008808 202.848352,4.68904021 C204.38224,3.18861673 206.156231,2.03185961 208.175371,1.21898567 C210.192098,0.406111732 212.304733,0 214.512181,0 C216.704923,0 218.815803,0.406111732 220.847454,1.21898567 C222.878885,2.03185961 224.668019,3.18861673 226.214637,4.68904021 C227.760157,6.1894637 228.945524,7.90259173 229.767666,9.83254396 C230.591124,11.7657486 231,13.817556 231,15.9988075 L231,15.9988075 Z" id="Fill-9"></path>
                    <path d="M235.671496,32 C234.203308,32 233,30.7856792 233,29.3007258 L233,3.69927415 C233,2.2165246 234.203308,1 235.671496,1 L238.397975,1 C239.869436,1 241.782946,1.980272 242.651772,3.17586003 L251.07929,14.7687665 C251.951169,15.9674399 252.929307,17.3825313 253.255062,17.9226947 C253.255062,17.9226947 253.255062,17.9226947 253.766059,18.9038482 C254.274437,19.8850017 254.836272,21.0534824 255.452217,22.407968 C255.283776,21.1248871 255.161372,19.9795469 255.084352,18.9761344 C255.009295,17.9751463 254.970457,17.0856728 254.970457,16.3103588 L254.970457,3.69927415 C254.970457,2.2165246 256.17311,1 257.642826,1 L260.327631,1 C261.795601,1 263,2.2165246 263,3.69927415 L263,29.3007258 C263,30.7856792 261.795601,32 260.327631,32 L257.642826,32 C256.17311,32 254.258509,31.0203892 253.390339,29.8225973 L244.955621,18.1704073 C244.08745,16.972395 243.100803,15.5522348 242.765666,15.0155976 C242.765666,15.0155976 242.765666,15.0155976 242.253578,14.0311383 C241.744982,13.0530701 241.190566,11.8980329 240.586621,10.5713158 C240.756589,11.8709255 240.877902,13.0204531 240.955141,14.0227636 C241.030415,15.0255149 241.07078,15.9132252 241.07078,16.6927266 L241.07078,29.3007258 C241.07078,30.7856792 239.869436,32 238.397975,32 L235.671496,32" id="Fill-10"></path>
                    <path d="M142.07751,17.4415101 C142.07751,14.6575153 140.351246,12.2065124 137.732103,10.77319 C137.222862,10.4219282 136.609613,10.0056339 135.848726,9.4908124 C132.261782,7.0639519 132.238865,3.43323113 132.238865,3.43323113 C132.238865,3.43323113 131.065693,7.44762119 128.264977,9.54583979 C127.154386,10.3764708 126.323647,11.0646395 125.707533,11.612956 C123.822834,13.0730308 122.643933,15.1431919 122.643933,17.4415101 C122.643933,21.3295329 126.012285,24.5674494 130.476243,25.2906356 C130.097672,25.5440226 129.478694,26.1045191 129.353092,27.1102372 C130.165762,26.430116 130.810963,26.138449 131.465198,25.9999018 C131.373309,26.684373 132.134637,28.1659803 132.134637,28.1659803 C132.134637,28.1659803 132.986971,26.7691978 133.877868,26.3037487 C134.486049,26.4470809 135.174439,26.5556132 136.271808,27.2170295 C135.988431,26.0138217 135.227985,25.4154804 134.837295,25.1799283 C139.004875,24.27861 142.07751,21.1564033 142.07751,17.4415101 Z M148,15.4988038 C148,17.6266023 147.604242,19.6178111 146.813387,21.4728652 C146.020989,23.3305292 144.868751,24.9917911 143.357334,26.4575209 C141.82939,27.9099832 140.08704,29.0307587 138.122352,29.8202822 C136.159647,30.6056732 134.12114,31 132.009035,31 C129.869605,31 127.822063,30.6056732 125.865528,29.8202822 C123.908112,29.0307587 122.18912,27.9099832 120.699959,26.4575209 C119.160777,24.9917911 117.992453,23.3246567 117.196089,21.4526377 C116.39708,19.5836637 116,17.5983274 116,15.4988038 C116,13.3862302 116.39708,11.4000239 117.196089,9.53518231 C117.992453,7.67208077 119.160777,6.00646886 120.699959,4.54008658 C122.18912,3.08740677 123.908112,1.96750135 125.865528,1.17971781 C127.822063,0.39367427 129.869605,0 132.009035,0 C134.135023,0 136.182124,0.39367427 138.154524,1.17971781 C140.121856,1.96750135 141.856934,3.08740677 143.357334,4.54008658 C144.857292,5.99276638 146.005344,7.6535933 146.803911,9.52626483 C147.598072,11.3943689 148,13.3862302 148,15.4988038 L148,15.4988038 Z" id="Fill-11"></path>
                </g>
            </g>
        </g>
    </g>
</svg>